# xmcd
#
# Track frame offsets:
#	150
#	9183
#	18224
#	27263
#	36312
#	45347
#	54390
#	63421
#	72472
#	81527
#	90612
#	99649
#	108674
#	117719
#	126766
#	135813
#	144854
#	153903
#	162938
#	171979
#	181018
#	190071
#	199114
#	208163
#	217200
#	226243
#	235296
#	244375
#	253424
#	262459
#	271500
#	280537
#	289582
#	298633
#	307688
#	316729
#	325786
#	334837
#
# Disc length: 4585
#
# Revision: 1
# Processed by: cddbd v1.5.1PL0 Copyright (c) Steve Scherf et al.
# Submitted via: audiograbber 1.82.02
# Normalized: r0:DSETVAR1
#
DISCID=2811e726
DTITLE=Various Artist - DJ LRM - Instrumental World Vol. 12 (The Streets Are Shady)
DYEAR=2003
DGENRE=Hip-Hop
TTITLE0=Eminem - Just Don't Give A Fuck
TTITLE1=Eminem - My Name Is
TTITLE2=Eminem Feat. Dr. Dre - Guilty Conscience
TTITLE3=Eminem - I'm Shady
TTITLE4=Eminem - Role Model
TTITLE5=Eminem - Cum On Everybody
TTITLE6=Eminem - Any Man
TTITLE7=Eminem - The Real Slim Shady
TTITLE8=Eminem - The Way I Am
TTITLE9=Eminem Feat. Dr. Dre and Snoop - Bitch Please II
TTITLE10=Eminem Feat. Dido - Stan
TTITLE11=Eminem - Without Me
TTITLE12=Eminem - What You Say
TTITLE13=Eminem - Cleanin' Out My Closet
TTITLE14=Eminem - Sing For The Moment
TTITLE15=Eminem - Superman
TTITLE16=Eminem - Lose Yourself
TTITLE17=Obie Trice,Eminem and 50 Cent - Love Me
TTITLE18=Obie Trice - Mr. Trice
TTITLE19=Obie Trice - Respect
TTITLE20=Obie Trice - Rap Name
TTITLE21=Obie Trice Feat. Dre. Dre and Eminem - Shit Hits The Fan
TTITLE22=Obie Trice - Got Some Teeth
TTITLE23=Obie Trice Feat. Busta Rhymes - Oh!
TTITLE24=50 Cent - The Hit
TTITLE25=50 Cent - Your Life's On The Line
TTITLE26=50 Cent - The Good Die Young
TTITLE27=50 Cent - Thug Love
TTITLE28=50 Cent - 50 Shot Ya
TTITLE29=50 Cent - Wanksta
TTITLE30=50 Cent - In Da Club
TTITLE31=50 Cent - Backdown
TTITLE32=50 Cent Feat Nate Dogg - 21 Questions
TTITLE33=50 Cent - Many Men (Wish Death)
TTITLE34=50 Cent Feat. Snoop Dogg - PIMP (Remix)
TTITLE35=G-Unit - Stunt 101
TTITLE36=G-Unit - Gangsta Shit
TTITLE37=G-Unit - The Grind
EXTD=
EXTT0=
EXTT1=
EXTT2=
EXTT3=
EXTT4=
EXTT5=
EXTT6=
EXTT7=
EXTT8=
EXTT9=
EXTT10=
EXTT11=
EXTT12=
EXTT13=
EXTT14=
EXTT15=
EXTT16=
EXTT17=
EXTT18=
EXTT19=
EXTT20=
EXTT21=
EXTT22=
EXTT23=
EXTT24=
EXTT25=
EXTT26=
EXTT27=
EXTT28=
EXTT29=
EXTT30=
EXTT31=
EXTT32=
EXTT33=
EXTT34=
EXTT35=
EXTT36=
EXTT37=
PLAYORDER=
